<svg width="130" height="130" viewBox="0 0 130 130" fill="none" xmlns="http://www.w3.org/2000/svg">
<g clip-path="url(#clip0_3684_3)">
<path d="M130 0H0V130H130V0Z" fill="#18D16F"/>
<path d="M69.0625 49.6774L80.8882 30.2697C77.6795 28.1478 74.0308 26.6728 70.0717 26L68.0791 38.0069C67.5098 41.4227 62.5932 41.4227 62.0498 38.0069L60.0832 26C56.1499 26.6728 52.5012 28.1737 49.2666 30.2697L61.0924 49.6774C62.9296 52.6274 67.2511 52.6274 69.0625 49.6774Z" fill="white"/>
<path d="M58.9446 53.4555L36.2246 52.9121C36.1987 53.4296 36.1729 53.9731 36.1729 54.4906C36.1729 57.9581 36.7939 61.2962 37.9066 64.4015L49.2925 60.1059C52.5271 58.8897 54.9854 63.1335 52.2942 65.333L42.9009 73.0702C45.4109 76.0461 48.4903 78.5044 51.9837 80.2899L62.8779 60.3388C64.5857 57.2853 62.4379 53.5332 58.9446 53.4555Z" fill="white"/>
<path d="M87.2541 73.0702L77.8608 65.333C75.1954 63.1335 77.6279 58.8897 80.8625 60.1059L92.2483 64.4015C93.3869 61.2962 93.9821 57.984 93.9821 54.4906C93.9821 53.9472 93.9562 53.4296 93.9303 52.9121L71.2363 53.4555C67.7687 53.5332 65.5951 57.2853 67.2771 60.3129L78.1713 80.264C81.6647 78.5044 84.744 76.0461 87.2541 73.0702Z" fill="white"/>
<path d="M20 96.023V86.7849H23.9592V95.8677C23.9592 98.9988 25.3824 100.293 27.7631 100.293C30.1696 100.293 31.567 98.9988 31.567 95.8677V86.7849H35.4744V96.023C35.4744 100.888 32.6021 103.553 27.7372 103.553C22.8723 103.553 20 100.862 20 96.023Z" fill="white"/>
<path d="M48.9561 103.269L44.8158 97.5497L40.7531 103.269H36.1987L42.5386 94.8844L36.5351 86.7849H41.0377L44.971 92.1414L48.8267 86.7849H53.0964L47.1447 94.755L53.5363 103.294H48.9561V103.269Z" fill="white"/>
<path d="M54.106 86.7849H58.0651V100.163H66.6304V103.269H54.106V86.7849Z" fill="white"/>
<path d="M67.8726 86.7849H71.8317V103.269H67.8726V86.7849Z" fill="white"/>
<path d="M90.618 86.7849V103.269H87.3575L78.8181 93.2541V103.269H74.9106V86.7849H78.197L86.7105 96.7993V86.7849H90.618Z" fill="white"/>
<path d="M99.9082 96.7993L97.6052 99.1023V103.269H93.6719V86.7849H97.6052V94.4962L105.187 86.7849H109.586L102.496 94.134L110 103.269H105.394L99.9082 96.7993Z" fill="white"/>
</g>
<defs>
<clipPath id="clip0_3684_3">
<rect width="130" height="130" fill="white"/>
</clipPath>
</defs>
</svg>
