<svg width="474" height="200" viewBox="0 0 474 200" fill="none" xmlns="http://www.w3.org/2000/svg">
<mask id="mask0_1267_6001" style="mask-type:luminance" maskUnits="userSpaceOnUse" x="31" y="52" width="403" height="96">
<path d="M433.732 52H31V148H433.732V52Z" fill="white"/>
</mask>
<g mask="url(#mask0_1267_6001)">
<mask id="mask1_1267_6001" style="mask-type:luminance" maskUnits="userSpaceOnUse" x="31" y="52" width="403" height="96">
<path d="M433.146 52H31V148H433.146V52Z" fill="white"/>
</mask>
<g mask="url(#mask1_1267_6001)">
<path fill-rule="evenodd" clip-rule="evenodd" d="M51.2995 76.9592L39.1801 67.7382C37.3471 70.9427 35.781 74.306 34.5086 77.8L48.7012 82.6207C49.4398 80.6775 50.3029 78.781 51.2906 76.9592H51.2995ZM62.9473 62.8428L52.0114 52.0056C48.6478 54.9672 45.6046 58.3024 42.9352 61.9553L55.01 71.1389C57.3147 68.0372 59.9752 65.2438 62.9384 62.8335L62.9473 62.8428ZM46.6902 89.3286L32.4976 84.5079C31.6167 88.1141 31.0383 91.795 30.7713 95.5133H45.7203C45.9161 93.4299 46.2364 91.3652 46.6902 89.3286ZM48.0872 115.992L33.9124 120.813C35.1136 124.419 36.6352 127.903 38.4505 131.22L50.6054 121.98C49.6355 120.037 48.7991 118.019 48.0961 115.945V115.982L48.0872 115.992ZM54.1202 127.95L42.0721 137.106C44.8661 141.132 48.1139 144.804 51.7355 148.036L62.6447 137.218C59.4147 134.537 56.5494 131.407 54.1202 127.913V127.95ZM45.6135 103.679H30.7446C30.9137 107.182 31.3675 110.667 32.0883 114.086L46.3521 109.237C46.0051 107.387 45.7559 105.519 45.6046 103.632V103.669L45.6135 103.679Z" fill="#BEFE00"/>
<path fill-rule="evenodd" clip-rule="evenodd" d="M90.3619 69.8218C83.4747 69.8218 76.81 72.4096 71.5778 77.1182C66.3457 81.8268 62.8843 88.3385 61.8254 95.4854H76.4629C77.5307 91.954 79.782 88.9457 82.7985 87.0212C85.815 85.0966 89.4009 84.3866 92.8801 85.0219C96.3593 85.6572 99.5004 87.5911 101.725 90.4779C103.95 93.3553 105.097 96.9895 104.964 100.698C104.83 104.407 103.425 107.939 101.004 110.639C98.5839 113.339 95.3094 115.03 91.7946 115.385C88.2798 115.749 84.7561 114.759 81.882 112.601C79.0078 110.443 76.979 107.266 76.1604 103.66H61.7097C62.3593 109.462 64.5927 114.946 68.1342 119.449C71.6846 123.952 76.3918 127.278 81.704 129.034C87.0073 130.79 92.6933 130.893 98.05 129.342C103.416 127.782 108.23 124.634 111.931 120.271C115.624 115.908 118.044 110.508 118.89 104.734C119.735 98.9608 118.97 93.047 116.692 87.7219C114.414 82.3967 110.712 77.8656 106.041 74.6985C101.369 71.5221 95.9233 69.8405 90.3531 69.8405L90.3619 69.8218Z" fill="#BEFE00"/>
</g>
</g>
<path fill-rule="evenodd" clip-rule="evenodd" d="M371.722 78.8191C366.468 73.4292 359.998 70.7343 352.302 70.7343C344.607 70.7343 338.109 73.4292 332.808 78.8098C327.507 84.1904 324.862 91.0207 324.853 99.3007C324.853 107.562 327.507 114.402 332.808 119.819C338.053 125.033 345.006 127.932 352.237 127.932C359.469 127.932 366.431 125.024 371.667 119.819C376.949 114.411 379.585 107.571 379.585 99.3007C379.585 91.03 376.958 84.1997 371.713 78.8191H371.722ZM362.514 110.991C359.951 113.928 356.526 115.396 352.228 115.396C347.93 115.396 344.505 113.937 341.942 111.019C339.38 108.11 338.099 104.207 338.099 99.3286C338.099 94.4498 339.39 90.5468 341.942 87.6288C344.495 84.7108 347.93 83.2518 352.228 83.2518C356.526 83.2518 359.951 84.7108 362.504 87.6288C365.076 90.5468 366.347 94.4498 366.347 99.3286C366.347 104.207 365.057 108.092 362.504 110.991H362.514Z" fill="black"/>
<path d="M156.852 71.2279H143.974V128.098H156.852V71.2279Z" fill="black"/>
<path d="M179.662 128.126V115.277H148.424V128.098L179.662 128.126Z" fill="black"/>
<path d="M190.221 105.515V71.0522H203.74V105.515C203.74 108.835 204.557 111.392 206.191 113.184C207.825 114.976 210.224 115.872 213.386 115.872C216.549 115.872 218.973 114.976 220.66 113.184C222.347 111.392 223.19 108.835 223.19 105.515V71.0522H236.71V105.515C236.71 110.417 235.55 114.66 233.231 118.244C230.965 121.775 228.066 124.358 224.534 125.992C221.055 127.626 217.26 128.443 213.149 128.443C206.719 128.443 201.29 126.44 196.862 122.434C192.434 118.428 190.221 112.788 190.221 105.515Z" fill="black"/>
<path d="M312.197 71.6808V127.628H298.677V95.8742L285.79 127.628H275.749L262.861 95.8742V127.628H249.342V71.6808H264.838L280.809 109.947L296.701 71.6808H312.197Z" fill="black"/>
<path d="M440.331 71.9061H413.001L402.706 78.0827L404.523 84.1383H420.57C430.218 90.6378 420.57 104.101 420.57 104.101L442.753 78.6076L440.331 71.9061Z" fill="black"/>
<rect x="390.999" y="71.9053" width="38.6342" height="12.2927" fill="black"/>
<path d="M393.419 126.933H420.75L431.044 120.756L429.227 114.7H413.18C403.532 108.201 413.18 94.7375 413.18 94.7375L390.997 120.231L393.419 126.933Z" fill="black"/>
<rect x="442.754" y="126.933" width="38.6342" height="12.2927" transform="rotate(180 442.754 126.933)" fill="black"/>
</svg>
