<svg width="240" height="240" viewBox="0 0 240 240" fill="none" xmlns="http://www.w3.org/2000/svg">
<rect x="5" y="5" width="230" height="230" fill="black"/>
<rect x="5" y="5" width="230" height="230" stroke="black" stroke-width="10"/>
<path fill-rule="evenodd" clip-rule="evenodd" d="M74.1897 77.2471L50.4934 60.1576C46.9094 66.0965 43.8473 72.3298 41.3594 78.8054L69.1094 87.7395C70.5534 84.1381 72.2411 80.6232 74.1723 77.2471H74.1897ZM96.9639 51.0849L75.5815 31C69.005 36.4887 63.0549 42.67 57.8354 49.44L81.4447 66.4601C85.9508 60.7117 91.1527 55.5347 96.9461 51.0676L96.9639 51.0849ZM65.1774 100.172L37.4274 91.2371C35.705 97.9204 34.5741 104.743 34.0522 111.634H63.281C63.6638 107.773 64.2901 103.946 65.1774 100.172ZM67.9089 149.587L40.1937 158.522C42.5425 165.205 45.5175 171.663 49.0668 177.81L72.8326 160.686C70.9362 157.084 69.3008 153.344 67.9263 149.501V149.57L67.9089 149.587ZM79.7049 171.75L56.1478 188.718C61.6108 196.181 67.9611 202.985 75.0422 208.976L96.3721 188.926C90.057 183.957 84.4546 178.156 79.7049 171.681V171.75ZM63.0723 126.767H34C34.3306 133.26 35.2179 139.718 36.6271 146.055L64.5163 137.069C63.8378 133.641 63.3506 130.178 63.0549 126.68V126.749L63.0723 126.767Z" fill="#BEFE00"/>
<path fill-rule="evenodd" clip-rule="evenodd" d="M150.774 58C135.925 58 121.556 63.2943 110.276 72.9272C98.9951 82.56 91.5324 95.8818 89.2496 110.503H120.808C123.11 103.278 127.963 97.1241 134.467 93.1868C140.97 89.2496 148.702 87.7973 156.203 89.0968C163.704 90.3963 170.476 94.3527 175.272 100.259C180.068 106.145 182.543 113.58 182.255 121.168C181.968 128.756 178.937 135.98 173.718 141.504C168.5 147.028 161.44 150.487 153.863 151.214C146.285 151.959 138.688 149.933 132.491 145.518C126.295 141.103 121.921 134.605 120.155 127.227H89C90.4008 139.096 95.2159 150.315 102.852 159.528C110.506 168.74 120.655 175.544 132.108 179.137C143.541 182.731 155.8 182.941 167.349 179.768C178.917 176.577 189.296 170.135 197.276 161.21C205.238 152.284 210.456 141.237 212.279 129.425C214.101 117.613 212.451 105.515 207.54 94.6205C202.629 83.7258 194.648 74.4562 184.577 67.9769C174.505 61.4785 162.764 58.0382 150.755 58.0382L150.774 58Z" fill="#BEFE00" stroke="black" stroke-width="6"/>
<path d="M162.744 136.203C159.375 136.203 156.74 135.269 154.841 133.4C152.942 131.501 151.992 128.867 151.992 125.497H158.241C158.241 127.09 158.64 128.346 159.436 129.265C160.263 130.153 161.397 130.597 162.836 130.597H167.937C169.285 130.597 170.372 130.322 171.199 129.77C172.057 129.188 172.486 128.422 172.486 127.473V125.91C172.486 124.409 171.383 123.475 169.177 123.107L160.723 121.683C157.966 121.224 155.867 120.351 154.428 119.064C153.018 117.747 152.314 116.077 152.314 114.055V111.482C152.314 109.859 152.743 108.434 153.6 107.209C154.489 105.953 155.729 104.988 157.322 104.314C158.946 103.64 160.815 103.303 162.928 103.303H168.121C170.112 103.303 171.873 103.717 173.405 104.544C174.936 105.371 176.116 106.535 176.943 108.036C177.801 109.506 178.23 111.222 178.23 113.182H171.98C171.98 111.896 171.628 110.87 170.924 110.104C170.219 109.307 169.285 108.909 168.121 108.909H162.928C161.642 108.909 160.6 109.185 159.804 109.736C159.038 110.287 158.655 111.023 158.655 111.942V113.182C158.655 114.714 159.712 115.664 161.825 116.031L170.234 117.502C173.022 117.992 175.151 118.865 176.621 120.121C178.092 121.346 178.827 122.939 178.827 124.9V127.932C178.827 129.556 178.367 130.996 177.448 132.252C176.56 133.507 175.304 134.488 173.681 135.192C172.057 135.866 170.173 136.203 168.029 136.203H162.744Z" fill="#BEFE00"/>
<path d="M128.457 135.836C127.14 135.836 126.068 135.437 125.241 134.641C124.414 133.844 124 132.803 124 131.516V103.671H148.537V109.185H130.341V116.629H147.159V122.143H130.341V130.322H148.537V135.836H128.457Z" fill="#BEFE00"/>
</svg>
