<?xml version="1.0" encoding="UTF-8"?>
<!DOCTYPE svg PUBLIC "-//W3C//DTD SVG 1.1//EN" "http://www.w3.org/Graphics/SVG/1.1/DTD/svg11.dtd">
<svg xmlns="http://www.w3.org/2000/svg" version="1.1" width="131px" height="131px" style="shape-rendering:geometricPrecision; text-rendering:geometricPrecision; image-rendering:optimizeQuality; fill-rule:evenodd; clip-rule:evenodd" xmlns:xlink="http://www.w3.org/1999/xlink">
<g><path style="opacity:1" fill="#1b1b1a" d="M -0.5,-0.5 C 43.1667,-0.5 86.8333,-0.5 130.5,-0.5C 130.5,43.1667 130.5,86.8333 130.5,130.5C 86.8333,130.5 43.1667,130.5 -0.5,130.5C -0.5,86.8333 -0.5,43.1667 -0.5,-0.5 Z"/></g>
<g><path style="opacity:1" fill="#b7f501" d="M 36.5,8.5 C 41.774,12.1047 46.4407,16.438 50.5,21.5C 46.8132,24.3531 43.6465,27.6865 41,31.5C 35.7975,28.0008 30.9642,24.1675 26.5,20C 29.6561,16.0107 32.9894,12.1774 36.5,8.5 Z"/></g>
<g><path style="opacity:1" fill="#b5f102" d="M 20.5,27.5 C 25.5365,30.4433 30.3698,33.7767 35,37.5C 35.4386,40.6229 34.2719,42.9562 31.5,44.5C 25.713,43.1887 20.3797,41.0221 15.5,38C 17.0441,34.413 18.7107,30.913 20.5,27.5 Z"/></g>
<g><path style="opacity:1" fill="#baf801" d="M 68.5,58.5 C 62.2564,59.4578 55.923,59.7912 49.5,59.5C 53.62,41.3826 64.9534,31.3826 83.5,29.5C 106.009,30.8436 118.676,42.6769 121.5,65C 119.237,87.4304 106.903,99.5971 84.5,101.5C 64.5149,99.8455 52.8483,89.1788 49.5,69.5C 55.5368,69.1707 61.5368,69.5041 67.5,70.5C 73.0026,82.916 82.0026,86.416 94.5,81C 105.05,72.2711 106.05,62.6045 97.5,52C 85.3497,44.2386 75.683,46.4053 68.5,58.5 Z"/></g>
<g><path style="opacity:1" fill="#b1ec03" d="M 12.5,47.5 C 18.213,48.9593 23.8796,50.626 29.5,52.5C 29.7824,54.9866 29.7824,57.6533 29.5,60.5C 23.1667,60.5 16.8333,60.5 10.5,60.5C 10.4258,56.0164 11.0925,51.683 12.5,47.5 Z"/></g>
<g><path style="opacity:1" fill="#68860f" d="M 68.5,58.5 C 65.7425,59.8182 62.5758,60.4848 59,60.5C 55.6482,60.4982 52.4815,60.1649 49.5,59.5C 55.923,59.7912 62.2564,59.4578 68.5,58.5 Z"/></g>
<g><path style="opacity:1" fill="#b5f102" d="M 10.5,69.5 C 16.8333,69.5 23.1667,69.5 29.5,69.5C 29.8076,71.924 29.4742,74.2573 28.5,76.5C 22.992,78.7813 17.3253,80.4479 11.5,81.5C 10.8379,77.5341 10.5045,73.5341 10.5,69.5 Z"/></g>
<g><path style="opacity:1" fill="#b4f103" d="M 29.5,84.5 C 30.675,84.281 31.675,84.6143 32.5,85.5C 33.373,87.4134 34.373,89.2467 35.5,91C 31.347,94.5755 27.0137,97.9088 22.5,101C 21.5,101.667 20.5,101.667 19.5,101C 17.4322,97.6975 15.7655,94.1975 14.5,90.5C 19.4179,88.0877 24.4179,86.0877 29.5,84.5 Z"/></g>
<g><path style="opacity:1" fill="#b8f601" d="M 38.5,98.5 C 42.4038,101.737 46.0704,105.404 49.5,109.5C 45.5154,113.985 41.3487,118.318 37,122.5C 32.366,119.062 28.5327,114.895 25.5,110C 29.43,105.703 33.7633,101.87 38.5,98.5 Z"/></g>
</svg>
