<svg width="240" height="48" viewBox="0 0 240 48" fill="none" xmlns="http://www.w3.org/2000/svg">
<path fill-rule="evenodd" clip-rule="evenodd" d="M9.97754 13.4817L4.09467 9.23895C3.2049 10.7134 2.44471 12.2609 1.82706 13.8686L8.71631 16.0867C9.07481 15.1926 9.49378 14.3199 9.97322 13.4817H9.97754ZM15.6315 6.98646L15.627 6.98223L15.6271 6.98216L15.6315 6.98646ZM15.627 6.98223L10.3231 2C8.6904 3.36268 7.2132 4.8973 5.91741 6.57809L11.7787 10.8037C12.8974 9.37654 14.1888 8.09127 15.627 6.98223ZM7.74016 19.1732L0.850899 16.955C0.423291 18.6143 0.142536 20.308 0.0129573 22.0188H7.26935C7.36438 21.0603 7.51987 20.1103 7.74016 19.1732ZM8.41827 31.4416L1.53766 33.6597C2.12077 35.319 2.85936 36.9224 3.7405 38.4485L9.64063 34.197C9.16984 33.3029 8.76383 32.3743 8.4226 31.4201V31.4373L8.41827 31.4416ZM11.3468 36.9439L5.49845 41.1566C6.85469 43.0093 8.43124 44.6987 10.1892 46.186L15.4846 41.2081C13.9168 39.9745 12.5259 38.5343 11.3468 36.9267V36.9439ZM7.21752 25.7759H7.21503L7.2148 25.7732L7.21752 25.7759ZM7.2148 25.7732L7.2132 25.7716V25.7544L7.2148 25.7732ZM0 25.7759H7.21503C7.28862 26.637 7.40896 27.4896 7.57602 28.3336L0.652213 30.5646C0.302351 28.9914 0.0820663 27.3879 0 25.7759ZM165.522 14.3382C162.972 11.8582 159.831 10.6182 156.096 10.6182C152.361 10.6182 149.205 11.8582 146.633 14.3339C144.059 16.8097 142.776 19.9525 142.771 23.7623C142.771 27.5636 144.059 30.7106 146.633 33.2035C149.178 35.6023 152.554 36.9363 156.063 36.9363C159.574 36.9363 162.954 35.598 165.495 33.2035C168.059 30.7149 169.339 27.5678 169.339 23.7623C169.339 19.9567 168.063 16.814 165.518 14.3382H165.522ZM161.052 29.1414C159.809 30.4926 158.145 31.1682 156.059 31.1682C153.972 31.1682 152.31 30.4969 151.067 29.1542C149.823 27.8159 149.202 26.02 149.202 23.7752C149.202 21.5302 149.827 19.7344 151.067 18.3918C152.306 17.0491 153.972 16.3778 156.059 16.3778C158.145 16.3778 159.809 17.0491 161.047 18.3918C162.296 19.7344 162.913 21.5302 162.913 23.7752C162.913 26.02 162.287 27.8073 161.047 29.1414H161.052ZM61.215 10.848H54.9639V37.0151H57.2357L72.2926 37.028V31.1158H61.215V10.848ZM77.4183 26.6251V10.7682H83.9809V26.6251C83.9809 28.1531 84.3775 29.3293 85.1707 30.1538C85.9638 30.9785 87.1279 31.3907 88.663 31.3907C90.1983 31.3907 91.3752 30.9785 92.1939 30.1538C93.0126 29.3293 93.422 28.1531 93.422 26.6251V10.7682H99.9846V26.6251C99.9846 28.8806 99.4218 30.8329 98.296 32.482C97.1958 34.1071 95.7887 35.2954 94.0745 36.0472C92.3858 36.7991 90.5436 37.1749 88.5479 37.1749C85.4266 37.1749 82.7913 36.2533 80.642 34.4101C78.4929 32.5669 77.4183 29.972 77.4183 26.6251ZM136.625 36.7935V11.0508H129.103L121.389 28.6581L113.637 11.0508H106.114V36.7935H112.677V22.1828L118.933 36.7935H123.807L130.063 22.1828V36.7935H136.625ZM198.822 11.1587H193.634H185.555H174.881V16.8148H189.273C193.885 19.816 189.23 25.9725 189.23 25.9725L199.998 14.2422L198.822 11.1587ZM181.247 36.4742H176.056L174.88 33.3906L185.648 21.6604C185.648 21.6604 180.991 27.8197 185.608 30.8199H200V36.4761H181.247V36.4742ZM19.8227 13.5558C22.3624 11.3893 25.5976 10.1986 28.9406 10.1986L28.9363 10.2072C31.6403 10.2072 34.2836 10.9809 36.5512 12.4425C38.8189 13.8997 40.6157 15.9845 41.7214 18.4349C42.8271 20.885 43.1986 23.6062 42.7882 26.2627C42.378 28.9193 41.2031 31.4038 39.4105 33.4113C37.6138 35.4188 35.277 36.8675 32.6725 37.5853C30.0723 38.299 27.3123 38.2517 24.738 37.4435C22.1594 36.6354 19.8744 35.1051 18.1511 33.0331C16.432 30.9611 15.3479 28.4378 15.0325 25.7684H22.047C22.4445 27.4276 23.4293 28.8892 24.8243 29.8821C26.2195 30.8751 27.93 31.3308 29.6361 31.1632C31.3422 30.9998 32.9316 30.2218 34.1065 28.9794C35.2814 27.7371 35.9638 26.1123 36.0286 24.4057C36.0934 22.699 35.5362 21.0269 34.4564 19.703C33.3766 18.3746 31.8518 17.4848 30.1631 17.1925C28.4742 16.9003 26.7335 17.2269 25.2692 18.1124C23.805 18.9979 22.7122 20.3821 22.194 22.007H15.0887C15.6027 18.7185 17.2829 15.7223 19.8227 13.5558Z" fill="#BEFE00"/>
<path d="M61.215 10.848H54.9639V37.0151H61.215V10.848Z" fill="#020303"/>
<path fill-rule="evenodd" clip-rule="evenodd" d="M165.522 14.3382C162.972 11.8582 159.831 10.6182 156.096 10.6182C152.361 10.6182 149.205 11.8582 146.633 14.3339C144.059 16.8098 142.776 19.9525 142.771 23.7623C142.771 27.5636 144.059 30.7106 146.633 33.2035C149.178 35.6023 152.554 36.9363 156.063 36.9363C159.574 36.9363 162.954 35.598 165.495 33.2035C168.059 30.7149 169.339 27.5678 169.339 23.7623C169.339 19.9568 168.063 16.8141 165.518 14.3382H165.522ZM161.052 29.1414C159.809 30.4926 158.145 31.1682 156.059 31.1682C153.972 31.1682 152.31 30.4969 151.067 29.1542C149.823 27.8159 149.202 26.02 149.202 23.7752C149.202 21.5303 149.827 19.7344 151.067 18.3919C152.306 17.0491 153.972 16.3779 156.059 16.3779C158.145 16.3779 159.809 17.0491 161.047 18.3919C162.296 19.7344 162.913 21.5303 162.913 23.7752C162.913 26.02 162.287 27.8073 161.047 29.1414H161.052Z" fill="#020303"/>
<path d="M72.2926 37.028V31.1158H57.129V37.015L72.2926 37.028Z" fill="#020303"/>
<path d="M77.4183 26.6251V10.7682H83.9809V26.6251C83.9809 28.1531 84.3775 29.3293 85.1707 30.1538C85.9638 30.9785 87.1279 31.3907 88.6631 31.3907C90.1983 31.3907 91.3752 30.9785 92.1939 30.1538C93.0126 29.3293 93.422 28.1531 93.422 26.6251V10.7682H99.9846V26.6251C99.9846 28.8806 99.4218 30.8329 98.296 32.482C97.1958 34.1071 95.7887 35.2954 94.0745 36.0472C92.3858 36.7991 90.5436 37.1749 88.5479 37.1749C85.4266 37.1749 82.7913 36.2533 80.642 34.4101C78.4929 32.5669 77.4183 29.972 77.4183 26.6251Z" fill="#020303"/>
<path d="M136.625 11.0508V36.7935H130.063V22.1828L123.807 36.7935H118.933L112.677 22.1828V36.7935H106.114V11.0508H113.637L121.389 28.6581L129.103 11.0508H136.625Z" fill="#020303"/>
<path d="M198.822 11.1587H185.555L180.559 14.0007L181.44 16.7869H189.23C193.914 19.7776 189.23 25.9725 189.23 25.9725L199.998 14.2422L198.822 11.1587Z" fill="#020303"/>
<path d="M193.634 11.1587H174.881V16.8149H193.634V11.1587Z" fill="#020303"/>
<path d="M176.056 36.4742H189.323L194.319 33.6321L193.438 30.8458H185.648C180.964 27.8553 185.648 21.6604 185.648 21.6604L174.88 33.3906L176.056 36.4742Z" fill="#020303"/>
<path d="M181.247 36.4761H200V30.8199H181.247V36.4761Z" fill="#020303"/>
<path fill-rule="evenodd" clip-rule="evenodd" d="M9.97754 13.4817L4.09467 9.23895C3.2049 10.7134 2.44471 12.2609 1.82706 13.8686L8.71631 16.0867C9.07481 15.1926 9.49378 14.3199 9.97322 13.4817H9.97754ZM15.6315 6.98646L10.3231 2C8.6904 3.36268 7.2132 4.8973 5.91741 6.57809L11.7787 10.8037C12.8974 9.37651 14.1888 8.09122 15.6271 6.98216L15.6315 6.98646ZM7.74016 19.1732L0.850899 16.955C0.423291 18.6143 0.142536 20.308 0.0129573 22.0188H7.26935C7.36438 21.0603 7.51987 20.1103 7.74016 19.1732ZM8.41827 31.4416L1.53766 33.6597C2.12077 35.319 2.85936 36.9224 3.7405 38.4485L9.64063 34.197C9.16984 33.3029 8.76383 32.3743 8.4226 31.4201V31.4373L8.41827 31.4416ZM11.3468 36.9439L5.49845 41.1566C6.85469 43.0093 8.43124 44.6987 10.1892 46.186L15.4846 41.2081C13.9168 39.9745 12.5259 38.5343 11.3468 36.9267V36.9439ZM7.21752 25.7759H0C0.0820663 27.3879 0.302351 28.9914 0.652213 30.5646L7.57602 28.3336C7.40757 27.4825 7.28662 26.6228 7.2132 25.7544V25.7716L7.21752 25.7759Z" fill="#BEFE00"/>
<path fill-rule="evenodd" clip-rule="evenodd" d="M28.9406 10.1986C25.5976 10.1986 22.3624 11.3893 19.8227 13.5558C17.2829 15.7223 15.6027 18.7185 15.0887 22.007H22.194C22.7122 20.3821 23.805 18.9979 25.2692 18.1124C26.7335 17.2269 28.4742 16.9003 30.1631 17.1925C31.8518 17.4848 33.3766 18.3746 34.4564 19.703C35.5362 21.0269 36.0934 22.699 36.0286 24.4057C35.9638 26.1123 35.2814 27.7371 34.1065 28.9794C32.9316 30.2218 31.3422 30.9998 29.6361 31.1632C27.93 31.3308 26.2195 30.8751 24.8243 29.8821C23.4293 28.8892 22.4445 27.4276 22.047 25.7684H15.0325C15.3479 28.4378 16.432 30.9612 18.1511 33.0331C19.8744 35.1051 22.1594 36.6354 24.738 37.4435C27.3123 38.2517 30.0723 38.299 32.6725 37.5853C35.277 36.8675 37.6138 35.4188 39.4105 33.4113C41.2031 31.4039 42.378 28.9193 42.7882 26.2627C43.1986 23.6062 42.8271 20.8851 41.7214 18.4349C40.6157 15.9846 38.8189 13.8997 36.5512 12.4425C34.2836 10.9809 31.6403 10.2072 28.9363 10.2072L28.9406 10.1986Z" fill="#BEFE00"/>
</svg>