<?xml version="1.0" encoding="UTF-8"?>
<!DOCTYPE svg PUBLIC "-//W3C//DTD SVG 1.1//EN" "http://www.w3.org/Graphics/SVG/1.1/DTD/svg11.dtd">
<svg xmlns="http://www.w3.org/2000/svg" version="1.1" width="600px" height="204px" style="shape-rendering:geometricPrecision; text-rendering:geometricPrecision; image-rendering:optimizeQuality; fill-rule:evenodd; clip-rule:evenodd" xmlns:xlink="http://www.w3.org/1999/xlink">
<g><path style="opacity:1" fill="#1b1b1a" d="M -0.5,-0.5 C 199.5,-0.5 399.5,-0.5 599.5,-0.5C 599.5,67.5 599.5,135.5 599.5,203.5C 399.5,203.5 199.5,203.5 -0.5,203.5C -0.5,135.5 -0.5,67.5 -0.5,-0.5 Z"/></g>
<g><path style="opacity:1" fill="#b7f501" d="M 67.5,41.5 C 72.774,45.1047 77.4407,49.438 81.5,54.5C 77.8132,57.3531 74.6465,60.6865 72,64.5C 66.7975,61.0008 61.9642,57.1675 57.5,53C 60.6561,49.0107 63.9894,45.1774 67.5,41.5 Z"/></g>
<g><path style="opacity:1" fill="#b5f102" d="M 51.5,60.5 C 56.5365,63.4433 61.3698,66.7767 66,70.5C 66.4386,73.6229 65.2719,75.9562 62.5,77.5C 56.713,76.1887 51.3797,74.0221 46.5,71C 48.0441,67.413 49.7107,63.913 51.5,60.5 Z"/></g>
<g><path style="opacity:1" fill="#baf801" d="M 99.5,91.5 C 93.2564,92.4578 86.923,92.7912 80.5,92.5C 84.62,74.3826 95.9534,64.3826 114.5,62.5C 137.009,63.8436 149.676,75.6769 152.5,98C 150.237,120.43 137.903,132.597 115.5,134.5C 95.5149,132.845 83.8483,122.179 80.5,102.5C 86.5368,102.171 92.5368,102.504 98.5,103.5C 104.003,115.916 113.003,119.416 125.5,114C 136.05,105.271 137.05,95.6045 128.5,85C 116.35,77.2386 106.683,79.4053 99.5,91.5 Z"/></g>
<g><path style="opacity:1" fill="#8d8d8c" d="M 199.5,116.5 C 198.503,99.3414 198.17,82.008 198.5,64.5C 193.5,64.5 188.5,64.5 183.5,64.5C 183.5,86.8333 183.5,109.167 183.5,131.5C 182.503,109.006 182.169,86.3395 182.5,63.5C 188.167,63.5 193.833,63.5 199.5,63.5C 199.5,81.1667 199.5,98.8333 199.5,116.5 Z"/></g>
<g><path style="opacity:1" fill="#fefffe" d="M 199.5,116.5 C 208.833,116.5 218.167,116.5 227.5,116.5C 227.5,121.5 227.5,126.5 227.5,131.5C 212.833,131.5 198.167,131.5 183.5,131.5C 183.5,109.167 183.5,86.8333 183.5,64.5C 188.5,64.5 193.5,64.5 198.5,64.5C 198.17,82.008 198.503,99.3414 199.5,116.5 Z"/></g>
<g><path style="opacity:1" fill="#9a9a99" d="M 257.5,64.5 C 252.167,64.5 246.833,64.5 241.5,64.5C 241.5,79.8333 241.5,95.1667 241.5,110.5C 240.504,95.0089 240.17,79.3422 240.5,63.5C 246.358,63.1778 252.025,63.5111 257.5,64.5 Z"/></g>
<g><path style="opacity:1" fill="#fdfdfd" d="M 257.5,64.5 C 257.047,80.2377 257.547,95.9043 259,111.5C 265.582,119.091 272.582,119.425 280,112.5C 281.009,110.975 281.509,109.308 281.5,107.5C 282.496,93.3431 282.829,79.0097 282.5,64.5C 287.833,64.5 293.167,64.5 298.5,64.5C 298.5,78.8333 298.5,93.1667 298.5,107.5C 295.873,124.503 285.873,132.503 268.5,131.5C 253.907,131.563 244.907,124.563 241.5,110.5C 241.5,95.1667 241.5,79.8333 241.5,64.5C 246.833,64.5 252.167,64.5 257.5,64.5 Z"/></g>
<g><path style="opacity:1" fill="#878786" d="M 298.5,107.5 C 298.5,93.1667 298.5,78.8333 298.5,64.5C 293.167,64.5 287.833,64.5 282.5,64.5C 282.829,79.0097 282.496,93.3431 281.5,107.5C 281.5,92.8333 281.5,78.1667 281.5,63.5C 287.5,63.5 293.5,63.5 299.5,63.5C 299.829,78.3428 299.496,93.0095 298.5,107.5 Z"/></g>
<g><path style="opacity:1" fill="#fafafa" d="M 436.5,63.5 C 464.216,62.7172 477.716,76.0505 477,103.5C 473.987,118.182 465.153,127.348 450.5,131C 435.997,133.39 424.163,128.89 415,117.5C 407.752,104.18 407.752,90.8466 415,77.5C 420.795,70.5051 427.961,65.8384 436.5,63.5 Z"/></g>
<g><path style="opacity:1" fill="#c0c0c0" d="M 334.5,65.5 C 328.167,65.5 321.833,65.5 315.5,65.5C 315.5,87.1667 315.5,108.833 315.5,130.5C 320.833,130.5 326.167,130.5 331.5,130.5C 326.025,131.489 320.358,131.822 314.5,131.5C 314.5,109.167 314.5,86.8333 314.5,64.5C 321.354,64.176 328.021,64.5093 334.5,65.5 Z"/></g>
<g><path style="opacity:1" fill="#fdfdfd" d="M 334.5,65.5 C 341.09,80.0957 347.59,94.7624 354,109.5C 360.806,94.8946 367.306,80.2279 373.5,65.5C 379.833,65.5 386.167,65.5 392.5,65.5C 392.5,87.1667 392.5,108.833 392.5,130.5C 387.167,130.5 381.833,130.5 376.5,130.5C 376.667,118.495 376.5,106.495 376,94.5C 370.931,106.541 365.764,118.541 360.5,130.5C 356.167,131.833 351.833,131.833 347.5,130.5C 342.236,118.541 337.069,106.541 332,94.5C 331.5,106.495 331.333,118.495 331.5,130.5C 326.167,130.5 320.833,130.5 315.5,130.5C 315.5,108.833 315.5,87.1667 315.5,65.5C 321.833,65.5 328.167,65.5 334.5,65.5 Z"/></g>
<g><path style="opacity:1" fill="#c0c0c0" d="M 373.5,65.5 C 379.979,64.5093 386.646,64.176 393.5,64.5C 393.5,86.8333 393.5,109.167 393.5,131.5C 387.642,131.822 381.975,131.489 376.5,130.5C 381.833,130.5 387.167,130.5 392.5,130.5C 392.5,108.833 392.5,87.1667 392.5,65.5C 386.167,65.5 379.833,65.5 373.5,65.5 Z"/></g>
<g><path style="opacity:1" fill="#fcfcfc" d="M 491.5,65.5 C 512.169,65.3334 532.836,65.5 553.5,66C 554.786,68.0223 555.786,70.1889 556.5,72.5C 548.518,81.6495 540.351,90.6495 532,99.5C 532.961,95.9801 533.794,92.3134 534.5,88.5C 533.753,85.1782 532.086,82.3449 529.5,80C 516.838,79.5001 504.171,79.3334 491.5,79.5C 491.5,74.8333 491.5,70.1667 491.5,65.5 Z"/></g>
<g><path style="opacity:1" fill="#1d1d1c" d="M 437.5,78.5 C 447.641,76.9879 455.141,80.6546 460,89.5C 463.104,111.072 454.271,119.239 433.5,114C 425.939,106.925 423.773,98.4245 427,88.5C 429.738,84.2595 433.238,80.9262 437.5,78.5 Z"/></g>
<g><path style="opacity:1" fill="#b1ec03" d="M 43.5,80.5 C 49.213,81.9593 54.8796,83.626 60.5,85.5C 60.7824,87.9866 60.7824,90.6533 60.5,93.5C 54.1667,93.5 47.8333,93.5 41.5,93.5C 41.4258,89.0164 42.0925,84.683 43.5,80.5 Z"/></g>
<g><path style="opacity:1" fill="#68860f" d="M 99.5,91.5 C 96.7425,92.8182 93.5758,93.4848 90,93.5C 86.6482,93.4982 83.4815,93.1649 80.5,92.5C 86.923,92.7912 93.2564,92.4578 99.5,91.5 Z"/></g>
<g><path style="opacity:1" fill="#f7f7f7" d="M 516.5,94.5 C 517.043,94.56 517.376,94.8933 517.5,95.5C 513.174,102.359 513.507,108.859 518.5,115C 531.162,115.5 543.829,115.667 556.5,115.5C 556.5,120.5 556.5,125.5 556.5,130.5C 535.833,130.5 515.167,130.5 494.5,130.5C 493.066,127.302 492.566,123.968 493,120.5C 501.04,111.963 508.874,103.296 516.5,94.5 Z"/></g>
<g><path style="opacity:1" fill="#b5f102" d="M 41.5,102.5 C 47.8333,102.5 54.1667,102.5 60.5,102.5C 60.8076,104.924 60.4742,107.257 59.5,109.5C 53.992,111.781 48.3253,113.448 42.5,114.5C 41.8379,110.534 41.5045,106.534 41.5,102.5 Z"/></g>
<g><path style="opacity:1" fill="#b4f103" d="M 60.5,117.5 C 61.675,117.281 62.675,117.614 63.5,118.5C 64.373,120.413 65.373,122.247 66.5,124C 62.347,127.575 58.0137,130.909 53.5,134C 52.5,134.667 51.5,134.667 50.5,134C 48.4322,130.697 46.7655,127.197 45.5,123.5C 50.4179,121.088 55.4179,119.088 60.5,117.5 Z"/></g>
<g><path style="opacity:1" fill="#b8f601" d="M 69.5,131.5 C 73.4038,134.737 77.0704,138.404 80.5,142.5C 76.5154,146.985 72.3487,151.318 68,155.5C 63.366,152.062 59.5327,147.895 56.5,143C 60.43,138.703 64.7633,134.87 69.5,131.5 Z"/></g>
</svg>
