<svg width="600" height="600" viewBox="0 0 600 600" fill="none" xmlns="http://www.w3.org/2000/svg">
<rect width="600" height="600" fill="#1B1B1A"/>
<path fill-rule="evenodd" clip-rule="evenodd" d="M67.6929 272.565L52.5441 261.64C50.2529 265.437 48.2953 269.422 46.7048 273.562L64.4452 279.273C65.3683 276.971 66.4472 274.724 67.6818 272.565H67.6929ZM82.2523 255.84L68.5827 243C64.3784 246.509 60.5745 250.461 57.2378 254.789L72.331 265.669C75.2117 261.994 78.5373 258.685 82.2409 255.829L82.2523 255.84ZM61.9315 287.221L44.1911 281.509C43.09 285.782 42.367 290.143 42.0334 294.548H60.7191C60.9638 292.08 61.3642 289.634 61.9315 287.221ZM63.6777 318.812L45.9596 324.524C47.4611 328.796 49.3631 332.925 51.6321 336.855L66.8254 325.907C65.613 323.605 64.5675 321.214 63.6888 318.757V318.801L63.6777 318.812ZM71.2187 332.98L56.1589 343.828C59.6514 348.599 63.7111 352.949 68.2379 356.779L81.874 343.961C77.8368 340.784 74.2552 337.076 71.2187 332.936V332.98ZM60.5857 304.223H42C42.2113 308.374 42.7786 312.503 43.6795 316.554L61.5088 310.809C61.075 308.617 60.7636 306.404 60.5745 304.168V304.212L60.5857 304.223Z" fill="#BEFE00"/>
<path fill-rule="evenodd" clip-rule="evenodd" d="M116.52 264.105C107.912 264.105 99.5808 267.172 93.0407 272.75C86.5006 278.329 82.174 286.044 80.8505 294.512H99.147C100.482 290.328 103.296 286.764 107.066 284.484C110.837 282.203 115.319 281.362 119.668 282.115C124.017 282.867 127.943 285.159 130.724 288.579C133.504 291.988 134.939 296.294 134.772 300.689C134.605 305.083 132.848 309.267 129.823 312.466C126.797 315.665 122.704 317.669 118.311 318.089C113.918 318.521 109.513 317.347 105.92 314.791C102.328 312.234 99.7921 308.47 98.7687 304.198H80.7058C81.5179 311.071 84.3096 317.569 88.7365 322.904C93.1741 328.24 99.0581 332.18 105.698 334.261C112.327 336.342 119.434 336.464 126.13 334.626C132.837 332.778 138.854 329.047 143.481 323.878C148.097 318.709 151.122 312.311 152.179 305.471C153.236 298.63 152.279 291.623 149.432 285.314C146.584 279.004 141.957 273.636 136.118 269.884C130.279 266.12 123.472 264.128 116.509 264.128L116.52 264.105Z" fill="#BEFE00"/>
<path d="M199.633 265.781H183.536V333.161H199.633V265.781Z" fill="white"/>
<path fill-rule="evenodd" clip-rule="evenodd" d="M468.214 274.767C461.647 268.382 453.559 265.188 443.94 265.188C434.322 265.188 426.197 268.382 419.573 274.756C412.946 281.132 409.641 289.224 409.627 299.034C409.627 308.823 412.946 316.926 419.573 323.346C426.127 329.522 434.82 332.957 443.857 332.957C452.897 332.957 461.6 329.511 468.144 323.346C474.748 316.937 478.043 308.834 478.043 299.034C478.043 289.235 474.758 281.143 468.204 274.767H468.214ZM456.704 312.886C453.502 316.365 449.218 318.105 443.847 318.105C438.473 318.105 434.192 316.376 430.99 312.919C427.788 309.472 426.187 304.848 426.187 299.068C426.187 293.287 427.798 288.663 430.99 285.206C434.182 281.748 438.473 280.019 443.847 280.019C449.218 280.019 453.502 281.748 456.69 285.206C459.906 288.663 461.496 293.287 461.496 299.068C461.496 304.848 459.882 309.45 456.69 312.886H456.704Z" fill="white"/>
<path d="M228.145 333.191V317.967H189.097V333.157L228.145 333.191Z" fill="white"/>
<path d="M241.34 306.398V265.566H258.239V306.398C258.239 310.332 259.261 313.361 261.303 315.484C263.345 317.608 266.343 318.669 270.296 318.669C274.249 318.669 277.28 317.608 279.388 315.484C281.496 313.361 282.551 310.332 282.551 306.398V265.566H299.45V306.398C299.45 312.206 298.001 317.233 295.102 321.48C292.269 325.664 288.645 328.724 284.231 330.66C279.882 332.596 275.139 333.564 270 333.564C261.962 333.564 255.176 331.191 249.641 326.444C244.107 321.698 241.34 315.016 241.34 306.398Z" fill="white"/>
<path d="M393.806 266.307V332.594H376.909V294.971L360.799 332.594H348.248L332.139 294.971V332.594H315.24V266.307H334.609L354.572 311.645L374.437 266.307H393.806Z" fill="white"/>
<path d="M553.972 266.571H519.809L506.942 273.889L509.212 281.064H529.271C541.332 288.765 529.271 304.717 529.271 304.717L557 274.511L553.972 266.571Z" fill="white"/>
<path d="M540.602 266.571H492.311V281.136H540.602V266.571Z" fill="white"/>
<path d="M495.334 331.77H529.497L542.364 324.452L540.095 317.277H520.036C507.974 309.577 520.036 293.625 520.036 293.625L492.307 323.83L495.334 331.77Z" fill="white"/>
<path d="M508.708 331.773H557V317.209H508.708V331.773Z" fill="white"/>
</svg>
