<svg width="240" height="240" viewBox="0 0 240 240" fill="none" xmlns="http://www.w3.org/2000/svg">
<rect x="5" y="5" width="230" height="230" fill="black"/>
<rect x="5" y="5" width="230" height="230" stroke="black" stroke-width="10"/>
<path fill-rule="evenodd" clip-rule="evenodd" d="M74.1897 77.2471L50.4934 60.1576C46.9094 66.0965 43.8473 72.3298 41.3594 78.8054L69.1094 87.7395C70.5534 84.1381 72.2411 80.6232 74.1723 77.2471H74.1897ZM96.9639 51.0849L75.5815 31C69.005 36.4887 63.0549 42.67 57.8354 49.44L81.4447 66.4601C85.9508 60.7117 91.1527 55.5347 96.9461 51.0676L96.9639 51.0849ZM65.1774 100.172L37.4274 91.2371C35.705 97.9204 34.5741 104.743 34.0522 111.634H63.281C63.6638 107.773 64.2901 103.946 65.1774 100.172ZM67.9089 149.587L40.1937 158.522C42.5425 165.205 45.5175 171.663 49.0668 177.81L72.8326 160.686C70.9362 157.084 69.3008 153.344 67.9263 149.501V149.57L67.9089 149.587ZM79.7049 171.75L56.1478 188.718C61.6108 196.181 67.9611 202.985 75.0422 208.976L96.3721 188.926C90.057 183.957 84.4546 178.156 79.7049 171.681V171.75ZM63.0723 126.767H34C34.3306 133.26 35.2179 139.718 36.6271 146.055L64.5163 137.069C63.8378 133.641 63.3506 130.178 63.0549 126.68V126.749L63.0723 126.767Z" fill="#BEFE00"/>
<path fill-rule="evenodd" clip-rule="evenodd" d="M150.567 64.0156C137.102 64.0156 124.07 68.8118 113.84 77.5383C103.61 86.2647 96.842 98.3331 94.7718 111.579H123.392C125.479 105.034 129.881 99.4584 135.779 95.8916C141.677 92.3248 148.688 91.0092 155.491 92.1864C162.294 93.3637 168.435 96.9478 172.785 102.298C177.134 107.631 179.379 114.366 179.118 121.24C178.857 128.114 176.108 134.659 171.375 139.663C166.643 144.667 160.241 147.8 153.369 148.459C146.496 149.134 139.607 147.298 133.987 143.299C128.368 139.299 124.401 133.412 122.8 126.729H94.5454C95.8158 137.481 100.183 147.645 107.107 155.99C114.049 164.336 123.253 170.5 133.639 173.755C144.009 177.01 155.126 177.201 165.599 174.326C176.09 171.435 185.503 165.6 192.74 157.514C199.961 149.428 204.693 139.421 206.346 128.72C207.999 118.02 206.502 107.059 202.048 97.1904C197.595 87.3209 190.357 78.9234 181.223 73.0538C172.089 67.1669 161.442 64.0503 150.55 64.0503L150.567 64.0156Z" fill="#BEFE00"/>
</svg>
